<svg width="27" height="23" viewBox="0 0 27 23" fill="none" xmlns="http://www.w3.org/2000/svg">
<path d="M22.3485 12.6985L14.487 21.5074C13.8939 22.172 12.8251 22.1627 12.2443 21.4879L9.06284 17.7905C8.59317 17.2447 8.61264 16.4476 9.10842 15.9238L17.6607 6.8885C18.1292 6.39345 18.8923 6.28284 19.4906 6.62325L23.3996 8.84758C24.1679 9.28476 25.14 9.09871 25.6926 8.40872V8.40872C26.1245 7.8694 26.0988 7.1095 25.6313 6.5986L20.9473 1.47942C20.6684 1.17457 20.2676 1 19.8465 1H7.23023C6.83235 1 6.45147 1.15592 6.17465 1.43213L1.41398 6.18228C0.882963 6.71212 0.860031 7.54665 1.3612 8.10298L4.11317 11.1579C4.68309 11.7905 5.69322 11.8105 6.28945 11.2009L11.514 5.85937" stroke="#344267" stroke-width="2" stroke-linecap="round" stroke-linejoin="round"/>
</svg>
